<svg xmlns="http://www.w3.org/2000/svg" xmlns:xlink="http://www.w3.org/1999/xlink" version="1.1" x="0px" y="0px" viewBox="0 0 64 64" enable-background="new 0 0 64 64" xml:space="preserve"><g><path fill="#000000" d="M45.115,15.423c-0.672,1.061-1.348,2.121-2.028,3.177c-0.932-0.598-2.023-0.934-3.156-0.934   c-0.596,0-1.187,0.093-1.76,0.276c-2.863,0.913-4.551,3.643-4.106,6.64c0.248,1.667,1.259,3.088,2.669,3.964   c-0.913,1.419-1.824,2.83-2.743,4.236c-0.352,0.539-0.85,0.602-1.387,0.257c-2.267-1.45-4.536-2.899-6.794-4.364   c-0.633-0.409-0.683-0.854-0.233-1.554c2.902-4.534,5.81-9.065,8.715-13.595c0.767-1.197,1.523-2.402,2.3-3.591   c0.487-0.746,0.896-0.824,1.65-0.343c2.162,1.378,4.321,2.762,6.479,4.147C45.53,14.258,45.626,14.619,45.115,15.423z"></path><path fill="#000000" d="M39.317,8.025c0.966-1.478,1.991-3.044,3.012-4.612c0.429-0.658,0.841-1.328,1.277-1.981   c0.47-0.704,0.832-0.81,1.52-0.38c1.526,0.954,3.034,1.937,4.546,2.913c0.573,0.369,0.68,0.864,0.318,1.433   c-1.439,2.266-2.888,4.527-4.312,6.756C43.562,10.781,41.491,9.437,39.317,8.025z"></path><path fill="#000000" d="M25.053,30.375c2.156,1.378,4.221,2.698,6.38,4.079c-0.715,1.083-1.441,2.208-2.195,3.313   c-0.321,0.47-0.796,0.553-1.269,0.257c-1.589-0.995-3.17-2.003-4.738-3.03c-0.493-0.323-0.605-0.8-0.278-1.319   C23.653,32.561,24.365,31.455,25.053,30.375z"></path><path fill="#000000" d="M50.026,59.835c-0.942-0.831-1.961-1.573-3.036-2.238c-0.609-0.377-1.252-0.72-1.895-1.041   c-0.199-0.1-0.399-0.199-0.609-0.299c1.274-1.108,2.604-2.094,3.656-3.313c5.54-6.382,6.947-13.583,3.933-21.56   c-1.396-3.667-3.701-6.648-6.88-8.963c-0.321-0.233-0.598-0.609-0.776-0.975c-1.075-2.238-3.612-3.368-5.972-2.626   c-2.426,0.776-3.845,3.08-3.468,5.628c0.355,2.371,2.548,4.122,5.085,4.11c0.454-0.011,1.064,0,1.363,0.266   c3.833,3.435,5.595,7.689,4.509,12.808c-1.54,7.29-8.033,11.611-15.378,10.381c-2.116-0.366-4.033-1.23-5.662-2.814   c0.676,0,1.341,0.022,2.016-0.011c1.374-0.044,2.183-0.798,2.183-1.994c-0.011-1.252-0.842-2.005-2.249-2.005   c-2.005-0.011-4.011-0.011-6.016-0.011c-2.748,0-5.495-0.011-8.243,0.011c-1.252,0.011-2.216,0.92-2.216,2.028   c0,1.119,0.842,1.906,2.138,1.972c0.676,0.033,1.363-0.033,2.028,0.044c0.31,0.033,0.698,0.255,0.853,0.499   c1.462,2.46,3.401,4.454,5.728,6.083c0.144,0.111,0.288,0.211,0.454,0.343c-0.244,0.111-0.487,0.233-0.72,0.343   c-0.997,0.499-1.95,1.053-2.87,1.673c-0.443,0.31-0.886,0.632-1.307,0.964c-0.233,0.188-0.476,0.41-0.72,0.62   c-0.177,0.155-0.421,0.277-0.454,0.521c-0.033,0.299,0.011,0.643,0,0.953c0,0.654-0.011,1.307-0.011,1.972h35.088v-2.792   c-0.011-0.022-0.011-0.044-0.022-0.055C50.436,60.134,50.214,60.012,50.026,59.835z M39.999,26.076   c-1.451,0.022-2.581-1.03-2.604-2.426c-0.033-1.44,0.997-2.537,2.426-2.57c1.462-0.033,2.493,0.953,2.526,2.437   C42.381,24.901,41.317,26.054,39.999,26.076z"></path></g></svg>