<svg xmlns="http://www.w3.org/2000/svg" xmlns:xlink="http://www.w3.org/1999/xlink" version="1.1" x="0px" y="0px" viewBox="0 0 100 100" style="enable-background:new 0 0 100 100;" xml:space="preserve"><path d="M78.68945,75.42432h-7.5791c-0.55273,0-1,0.44775-1,1s0.44727,1,1,1h7.5791c0.55273,0,1-0.44775,1-1  S79.24219,75.42432,78.68945,75.42432z"></path><path d="M78.68945,79.92432h-7.5791c-0.55273,0-1,0.44775-1,1s0.44727,1,1,1h7.5791c0.55273,0,1-0.44775,1-1  S79.24219,79.92432,78.68945,79.92432z"></path><path d="M34.40039,32.93262c2.29004,0,4.15332-1.86328,4.15332-4.15381S36.69043,24.625,34.40039,24.625  c-2.29102,0-4.1543,1.86328-4.1543,4.15381S32.10938,32.93262,34.40039,32.93262z M34.40039,26.625  c1.1875,0,2.15332,0.96631,2.15332,2.15381s-0.96582,2.15381-2.15332,2.15381s-2.1543-0.96631-2.1543-2.15381  S33.21289,26.625,34.40039,26.625z"></path><path d="M11,90.00781h78c0.55273,0,1-0.44775,1-1V24.05469c0-0.55225-0.44727-1-1-1H61.7998V11.00781c0-0.55225-0.44727-1-1-1  H42.2002c-0.55273,0-1,0.44775-1,1v7.01855H26.59961c-0.55273,0-1,0.44775-1,1v7.81201H11c-0.55273,0-1,0.44775-1,1v61.16943  C10,89.56006,10.44727,90.00781,11,90.00781z M88,25.05469v62.95312H61.7998V25.05469H88z M59.7998,12.00781v76H43.2002v-76H59.7998  z M41.2002,20.02637v67.98145H27.59961V20.02637H41.2002z M12,28.83838h13.59961v59.16943H12V28.83838z"></path><path d="M21.16699,79.92432h-5.25c-0.55273,0-1,0.44775-1,1s0.44727,1,1,1h5.25c0.55273,0,1-0.44775,1-1  S21.71973,79.92432,21.16699,79.92432z"></path><path d="M15.91699,77.42432h5.25c0.55273,0,1-0.44775,1-1s-0.44727-1-1-1h-5.25c-0.55273,0-1,0.44775-1,1  S15.36426,77.42432,15.91699,77.42432z"></path><path d="M31.2334,38.14062h6.33301c0.55273,0,1-0.44775,1-1s-0.44727-1-1-1H31.2334c-0.55273,0-1,0.44775-1,1  S30.68066,38.14062,31.2334,38.14062z"></path><path d="M31.2334,42.86475h6.33301c0.55273,0,1-0.44775,1-1s-0.44727-1-1-1H31.2334c-0.55273,0-1,0.44775-1,1  S30.68066,42.86475,31.2334,42.86475z"></path><path d="M48.22559,42.86475h6.54883c0.55273,0,1-0.44775,1-1V19.02637c0-0.55225-0.44727-1-1-1h-6.54883c-0.55273,0-1,0.44775-1,1  v22.83838C47.22559,42.41699,47.67285,42.86475,48.22559,42.86475z M49.22559,20.02637h4.54883v20.83838h-4.54883V20.02637z"></path><path d="M66.9834,50.9834c0,4.677,3.10706,7.31433,6.24561,9.5c-3.13855,2.18567-6.24561,4.823-6.24561,9.5c0,0.55225,0.44727,1,1,1  s1-0.44775,1-1c0-0.69507,0.09406-1.32965,0.25397-1.92285h11.52527c0.15991,0.5932,0.25397,1.22778,0.25397,1.92285  c0,0.55225,0.44727,1,1,1s1-0.44775,1-1c0-4.677-3.10706-7.31433-6.24561-9.5c3.13855-2.18567,6.24561-4.823,6.24561-9.5  s-3.10706-7.31433-6.24561-9.5c3.13855-2.18567,6.24561-4.823,6.24561-9.5c0-0.55225-0.44727-1-1-1s-1,0.44775-1,1  c0,0.69525-0.09406,1.33002-0.25409,1.92334H69.23749c-0.16003-0.59332-0.25409-1.22809-0.25409-1.92334c0-0.55225-0.44727-1-1-1  s-1,0.44775-1,1c0,4.677,3.10706,7.31433,6.24561,9.5C70.09045,43.66907,66.9834,46.3064,66.9834,50.9834z M81.0166,50.9834  c0,0.71094-0.09741,1.35925-0.2644,1.96387H69.2478c-0.16699-0.60461-0.2644-1.25293-0.2644-1.96387  c0-0.71075,0.09735-1.35889,0.26428-1.96338h11.50464C80.91925,49.62451,81.0166,50.27264,81.0166,50.9834z M79.87042,66.06055  h-9.74084c1.12036-1.73383,2.935-3.05121,4.87042-4.36871C76.93542,63.00934,78.75006,64.32672,79.87042,66.06055z M75,59.27496  c-1.92047-1.30731-3.72345-2.61365-4.84583-4.3277h9.69165C78.72345,56.66132,76.92047,57.96765,75,59.27496z M70.12988,35.90674  h9.74023C78.74976,37.64038,76.93524,38.95758,75,40.27496C73.06476,38.95758,71.25024,37.64038,70.12988,35.90674z M75,42.69183  c1.92065,1.30743,3.72375,2.61389,4.84607,4.32819h-9.69214C71.27625,45.30573,73.07935,43.99927,75,42.69183z"></path></svg>