<svg xmlns="http://www.w3.org/2000/svg" xmlns:xlink="http://www.w3.org/1999/xlink" version="1.1" x="0px" y="0px" viewBox="0 0 48 48" style="enable-background:new 0 0 48 48;" xml:space="preserve"><path d="M41.5,40.1l-8.9-8.9c0.8-1.1,1.3-2.4,1.3-3.9s-0.5-2.8-1.3-3.9l8.9-8.9c1.6,1,3.8,0.8,5.3-0.6c1.7-1.7,1.7-4.4,0-6  s-4.4-1.7-6,0c-1.4,1.4-1.6,3.6-0.6,5.3l-8.9,8.9c-0.8-0.6-1.8-1-2.9-1.2V8.4c1.9-0.4,3.3-2.1,3.3-4.1c0-2.4-1.9-4.3-4.3-4.3  c-2.4,0-4.3,1.9-4.3,4.3c0,2,1.4,3.7,3.3,4.1V21c-2.8,0.4-5,2.6-5.5,5.5H8.4c-0.4-1.9-2.1-3.3-4.1-3.3C1.9,23.1,0,25,0,27.4  s1.9,4.3,4.3,4.3c2,0,3.7-1.4,4.1-3.3H21c0.2,1.1,0.6,2.1,1.2,2.9l-8.9,8.9c-1.6-1-3.8-0.8-5.3,0.6c-1.7,1.7-1.7,4.4,0,6  s4.4,1.7,6,0c1.4-1.4,1.6-3.6,0.6-5.3l8.9-8.9c2.3,1.7,5.4,1.7,7.7,0l8.9,8.9c-1,1.6-0.8,3.8,0.6,5.3c1.7,1.7,4.4,1.7,6,0  s1.7-4.4,0-6C45.3,39.3,43.1,39.1,41.5,40.1z"></path></svg>