<svg xmlns:xlink="http://www.w3.org/1999/xlink" xmlns="http://www.w3.org/2000/svg" stroke-width="0.501" stroke-linejoin="bevel" fill-rule="evenodd" version="1.1" overflow="visible" viewBox="0 0 75 75" x="0px" y="0px"><g fill="none" stroke="black" font-family="Times New Roman" font-size="16" transform="scale(1 -1)"><g transform="translate(0 -75)"><g><path d="M 16.982,9.076 L 19.76,13.882 L 50.982,13.882 L 50.982,9.076 L 16.982,9.076 Z M 24.821,15.085 L 27.044,18.697 L 43.788,45.906 L 33.611,45.906 C 32.419,45.09 30.977,44.614 29.425,44.614 C 28.17,44.614 26.986,44.926 25.949,45.477 L 18.637,38.165 L 10.915,45.886 L 13.725,48.697 L 18.637,45.266 L 22.563,49.192 C 22.197,50.07 21.995,51.034 21.995,52.044 C 21.995,53.055 22.197,54.018 22.563,54.897 L 18.637,58.823 L 13.725,55.392 L 10.915,58.202 L 18.637,65.924 L 25.948,58.611 C 26.986,59.162 28.169,59.474 29.425,59.474 C 30.977,59.474 32.419,58.997 33.611,58.182 L 45.719,58.182 C 44.527,56.433 43.83,54.319 43.83,52.044 C 43.83,49.769 44.527,47.655 45.72,45.906 L 45.679,45.906 C 46.523,44.646 47.645,43.542 49.021,42.697 C 50.959,41.504 53.123,40.991 55.238,41.089 L 48.894,30.781 L 52.122,25.564 L 46.068,15.085 L 24.821,15.085 Z M 45.409,52.044 C 45.409,57.198 49.594,61.381 54.747,61.381 C 59.902,61.381 64.085,57.198 64.085,52.044 C 64.085,46.89 59.902,42.706 54.747,42.706 C 49.594,42.706 45.409,46.89 45.409,52.044 Z M 58.512,52.044 C 58.512,54.122 56.826,55.809 54.747,55.809 C 52.669,55.809 50.982,54.122 50.982,52.044 C 50.982,49.966 52.669,48.279 54.747,48.279 C 56.826,48.279 58.512,49.966 58.512,52.044 Z M 31.806,52.044 C 31.806,53.359 30.74,54.426 29.425,54.426 C 28.111,54.426 27.044,53.359 27.044,52.044 C 27.044,50.73 28.111,49.663 29.425,49.663 C 30.74,49.663 31.806,50.73 31.806,52.044 Z M 54.683,52.031 C 54.647,52.072 54.646,52.103 54.661,52.128 C 54.682,52.161 54.724,52.171 54.758,52.151 C 54.791,52.131 54.801,52.087 54.78,52.053 C 54.813,52.034 54.823,51.991 54.803,51.958 C 54.783,51.924 54.739,51.914 54.706,51.935 C 54.674,51.955 54.663,51.998 54.683,52.031 Z M 54.683,52.031 C 54.747,52.074 54.703,52.064 54.683,52.031 Z" fill="#000000" stroke-linejoin="miter" stroke-linecap="round" stroke-width="0.348" stroke="none" marker-start="none" marker-end="none" stroke-miterlimit="79.8403193612775"></path></g></g></g></svg>